<?xml version="1.0" encoding="UTF-8"?><svg xmlns="http://www.w3.org/2000/svg" xmlns:xlink="http://www.w3.org/1999/xlink" width="150pt" zoomAndPan="magnify" viewBox="0 0 150 149.999998" height="149.999998pt" preserveAspectRatio="xMidYMid meet" version="1.2"><defs><g/></defs><g xml:id="surface1" id="surface1"><g style="fill:rgb(0%,76.858521%,79.998779%);fill-opacity:1;"><g transform="translate(45.182496, 85.318927)"><path style="stroke:none;" d="M 9.964844 -0.167969 C 11.304688 -0.238281 12.421875 -0.570312 13.414062 -1.125 C 14.359375 -1.675781 15.234375 -2.410156 16.078125 -3.382812 C 16.878906 -4.304688 17.664062 -5.363281 18.433594 -6.570312 C 19.152344 -7.769531 19.953125 -9.121094 20.832031 -10.578125 C 21.566406 -12.070312 22.296875 -13.558594 22.988281 -14.992188 C 23.679688 -16.429688 24.371094 -17.867188 25.058594 -19.300781 C 25.703125 -20.730469 26.402344 -22.121094 27.101562 -23.460938 C 27.804688 -24.800781 28.515625 -26.09375 29.265625 -27.441406 L 31.425781 -26.359375 C 32.148438 -25.964844 32.8125 -25.660156 33.519531 -25.410156 C 32.757812 -24.160156 32.046875 -22.867188 31.382812 -21.625 C 30.71875 -20.339844 30.148438 -19.109375 29.617188 -17.933594 C 28.476562 -15.480469 27.78125 -13.269531 27.449219 -11.300781 C 27.195312 -9.820312 27.207031 -8.570312 27.425781 -7.582031 C 27.640625 -6.597656 28.082031 -5.785156 28.691406 -5.136719 C 29.261719 -4.433594 29.949219 -3.941406 30.804688 -3.660156 C 31.609375 -3.375 32.542969 -3.246094 33.546875 -3.324219 C 35.179688 -3.378906 36.804688 -3.871094 38.515625 -4.855469 C 40.1875 -5.785156 41.613281 -7.117188 42.804688 -8.808594 C 40.785156 -9.136719 39.296875 -9.871094 38.34375 -10.957031 C 37.386719 -12.046875 36.949219 -13.632812 36.988281 -15.660156 C 37.015625 -16.628906 37.164062 -17.757812 37.398438 -18.992188 C 37.636719 -20.179688 37.929688 -21.324219 38.277344 -22.429688 C 38.3125 -22.53125 38.339844 -22.679688 38.425781 -22.785156 C 38.460938 -22.886719 38.492188 -23.035156 38.566406 -23.1875 L 38.707031 -23.640625 C 38.78125 -23.792969 38.8125 -23.941406 38.882812 -24.144531 C 40.230469 -24.164062 41.335938 -24.589844 42.289062 -25.480469 C 43.246094 -26.324219 43.789062 -27.402344 44.007812 -28.730469 C 42.847656 -27.574219 41.636719 -26.847656 40.378906 -26.5 C 40.289062 -26.441406 40.097656 -26.417969 39.8125 -26.378906 C 40.378906 -27.65625 41.070312 -29.09375 41.878906 -30.734375 C 42.648438 -32.324219 43.511719 -33.929688 44.417969 -35.582031 C 45.28125 -37.183594 46.195312 -38.746094 47.171875 -40.214844 C 48.148438 -41.6875 49.054688 -42.957031 49.976562 -44.082031 C 50.855469 -45.15625 51.675781 -45.933594 52.476562 -46.464844 C 53.234375 -46.992188 53.890625 -47.125 54.457031 -46.855469 C 54.570312 -47.882812 54.570312 -48.652344 54.417969 -49.117188 C 54.214844 -49.574219 53.933594 -49.925781 53.617188 -50.128906 L 53.492188 -50.355469 C 53.191406 -50.460938 52.847656 -50.515625 52.371094 -50.457031 C 51.847656 -50.390625 51.285156 -50.273438 50.71875 -50.15625 C 50.15625 -50.039062 49.589844 -49.921875 49.027344 -49.800781 C 48.375 -49.625 47.855469 -49.511719 47.566406 -49.527344 C 46.035156 -49.433594 44.484375 -49.484375 42.90625 -49.769531 C 41.328125 -50.058594 39.742188 -50.390625 38.144531 -50.820312 C 37.699219 -50.910156 37.152344 -51.035156 36.511719 -51.152344 C 35.871094 -51.265625 35.1875 -51.324219 34.453125 -51.425781 C 33.675781 -51.476562 32.855469 -51.472656 32.085938 -51.472656 C 31.269531 -51.417969 30.511719 -51.324219 29.761719 -51.136719 C 27.933594 -50.71875 26.523438 -50.011719 25.476562 -49.113281 C 24.433594 -48.210938 23.6875 -47.203125 23.289062 -46.140625 C 22.847656 -45.027344 22.792969 -43.910156 23.023438 -42.828125 C 23.257812 -41.699219 23.707031 -40.789062 24.480469 -40.019531 C 25.203125 -39.238281 26.1875 -38.683594 27.429688 -38.40625 C 28.625 -38.070312 30.058594 -38.199219 31.679688 -38.738281 C 30.765625 -39.878906 30.199219 -40.964844 29.972656 -42 C 29.75 -43.03125 29.769531 -44.046875 29.996094 -44.945312 C 30.183594 -45.785156 30.574219 -46.511719 31.128906 -47.109375 C 31.632812 -47.703125 32.210938 -48.109375 32.804688 -48.378906 C 33.589844 -48.667969 34.539062 -48.785156 35.601562 -48.769531 C 36.667969 -48.710938 37.785156 -48.65625 39.050781 -48.570312 C 40.273438 -48.433594 41.542969 -48.300781 42.902344 -48.226562 C 44.222656 -48.097656 45.5625 -48.167969 46.929688 -48.433594 C 45.160156 -47.539062 43.457031 -46.460938 41.820312 -45.292969 C 40.128906 -44.121094 38.550781 -42.863281 36.980469 -41.511719 C 35.417969 -40.113281 33.90625 -38.675781 32.453125 -37.144531 C 31.003906 -35.613281 29.640625 -34.144531 28.382812 -32.636719 C 28.214844 -32.425781 28.042969 -32.257812 27.875 -32.042969 L 27.375 -31.40625 C 26.535156 -31.976562 25.699219 -32.5 24.902344 -33.078125 C 24.066406 -33.601562 23.28125 -34.082031 22.507812 -34.515625 C 21.6875 -34.898438 20.925781 -35.191406 20.179688 -35.386719 C 19.433594 -35.585938 18.695312 -35.6875 17.984375 -35.597656 C 16.367188 -35.398438 15.085938 -34.855469 14.167969 -34.066406 C 13.253906 -33.277344 12.640625 -32.382812 12.320312 -31.472656 C 11.84375 -30.257812 11.921875 -29.207031 12.550781 -28.414062 C 12.847656 -27.96875 13.269531 -27.683594 13.773438 -27.503906 C 14.277344 -27.328125 14.953125 -27.3125 15.75 -27.507812 C 15.359375 -28.328125 15.230469 -28.988281 15.253906 -29.570312 C 15.28125 -30.152344 15.464844 -30.609375 15.757812 -30.980469 C 16.003906 -31.300781 16.367188 -31.492188 16.832031 -31.644531 C 17.292969 -31.800781 17.769531 -31.859375 18.25 -31.867188 C 19.3125 -31.855469 20.453125 -31.609375 21.769531 -31.097656 C 23.039062 -30.578125 24.417969 -29.976562 25.851562 -29.285156 L 24.371094 -27.222656 C 24.039062 -26.796875 23.757812 -26.328125 23.425781 -25.898438 C 23.09375 -25.472656 22.71875 -24.992188 22.34375 -24.511719 C 21.597656 -23.503906 20.761719 -22.484375 19.921875 -21.464844 C 19.082031 -20.445312 18.234375 -19.519531 17.375 -18.640625 C 16.007812 -17.21875 14.730469 -16.242188 13.597656 -15.667969 C 12.46875 -15.046875 11.4375 -14.773438 10.5625 -14.859375 C 9.011719 -14.90625 8.042969 -15.703125 7.558594 -17.285156 C 7.039062 -18.765625 7.234375 -20.71875 8.097656 -23.089844 C 6.863281 -22.9375 5.714844 -22.457031 4.652344 -21.699219 C 3.59375 -20.894531 2.695312 -19.964844 1.921875 -18.808594 C 1.101562 -17.644531 0.441406 -16.355469 -0.0625 -14.945312 C -0.5625 -13.53125 -0.824219 -12.148438 -0.886719 -10.695312 C -0.996094 -9.234375 -0.921875 -7.84375 -0.566406 -6.539062 C -0.257812 -5.226562 0.320312 -4.042969 1.214844 -3.042969 C 2.070312 -1.992188 3.226562 -1.21875 4.636719 -0.71875 C 6.054688 -0.167969 7.859375 -0.0078125 9.964844 -0.167969 Z M 34.636719 -26.898438 L 34.582031 -26.941406 C 33.878906 -27.191406 33.164062 -27.488281 32.488281 -27.886719 C 31.765625 -28.28125 31.089844 -28.679688 30.402344 -29.171875 C 31.078125 -30.316406 31.804688 -31.46875 32.578125 -32.625 C 33.3125 -33.730469 34.144531 -34.796875 35.023438 -35.871094 C 35.867188 -36.84375 36.800781 -37.875 37.878906 -38.921875 C 38.960938 -39.925781 40.136719 -40.9375 41.367188 -41.910156 C 42.605469 -42.835938 43.886719 -43.765625 45.230469 -44.605469 C 46.574219 -45.449219 47.921875 -46.242188 49.332031 -46.945312 C 48.402344 -45.867188 47.351562 -44.628906 46.179688 -43.179688 C 45.007812 -41.734375 43.804688 -40.136719 42.519531 -38.4375 C 41.195312 -36.679688 39.878906 -34.828125 38.570312 -32.933594 C 37.21875 -30.980469 35.921875 -28.988281 34.636719 -26.898438 Z M 34.636719 -26.898438 "/></g></g><g style="fill:rgb(52.938843%,10.198975%,52.159119%);fill-opacity:1;"><g transform="translate(46.247036, 84.544332)"><path style="stroke:none;" d="M 9.964844 -0.167969 C 11.304688 -0.238281 12.421875 -0.570312 13.414062 -1.125 C 14.359375 -1.675781 15.234375 -2.410156 16.078125 -3.382812 C 16.878906 -4.304688 17.664062 -5.363281 18.433594 -6.570312 C 19.152344 -7.769531 19.953125 -9.121094 20.832031 -10.578125 C 21.566406 -12.070312 22.296875 -13.558594 22.988281 -14.992188 C 23.679688 -16.429688 24.371094 -17.867188 25.058594 -19.300781 C 25.703125 -20.730469 26.402344 -22.121094 27.101562 -23.460938 C 27.804688 -24.800781 28.515625 -26.09375 29.265625 -27.441406 L 31.425781 -26.359375 C 32.148438 -25.964844 32.8125 -25.660156 33.519531 -25.410156 C 32.757812 -24.160156 32.046875 -22.867188 31.382812 -21.625 C 30.71875 -20.339844 30.148438 -19.109375 29.617188 -17.933594 C 28.476562 -15.480469 27.78125 -13.269531 27.449219 -11.300781 C 27.195312 -9.820312 27.207031 -8.570312 27.425781 -7.582031 C 27.640625 -6.597656 28.082031 -5.785156 28.691406 -5.136719 C 29.261719 -4.433594 29.949219 -3.941406 30.804688 -3.660156 C 31.609375 -3.375 32.542969 -3.246094 33.546875 -3.324219 C 35.179688 -3.378906 36.804688 -3.871094 38.515625 -4.855469 C 40.1875 -5.785156 41.613281 -7.117188 42.804688 -8.808594 C 40.785156 -9.136719 39.296875 -9.871094 38.34375 -10.957031 C 37.386719 -12.046875 36.949219 -13.632812 36.988281 -15.660156 C 37.015625 -16.628906 37.164062 -17.757812 37.398438 -18.992188 C 37.636719 -20.179688 37.929688 -21.324219 38.277344 -22.429688 C 38.3125 -22.53125 38.339844 -22.679688 38.425781 -22.785156 C 38.460938 -22.886719 38.492188 -23.035156 38.566406 -23.1875 L 38.707031 -23.640625 C 38.78125 -23.792969 38.8125 -23.941406 38.882812 -24.144531 C 40.230469 -24.164062 41.335938 -24.589844 42.289062 -25.480469 C 43.246094 -26.324219 43.789062 -27.402344 44.007812 -28.730469 C 42.847656 -27.574219 41.636719 -26.847656 40.378906 -26.5 C 40.289062 -26.441406 40.097656 -26.417969 39.8125 -26.378906 C 40.378906 -27.65625 41.070312 -29.09375 41.878906 -30.734375 C 42.648438 -32.324219 43.511719 -33.929688 44.417969 -35.582031 C 45.28125 -37.183594 46.195312 -38.746094 47.171875 -40.214844 C 48.148438 -41.6875 49.054688 -42.957031 49.976562 -44.082031 C 50.855469 -45.15625 51.675781 -45.933594 52.476562 -46.464844 C 53.234375 -46.992188 53.890625 -47.125 54.457031 -46.855469 C 54.570312 -47.882812 54.570312 -48.652344 54.417969 -49.117188 C 54.214844 -49.574219 53.933594 -49.925781 53.617188 -50.128906 L 53.492188 -50.355469 C 53.191406 -50.460938 52.847656 -50.515625 52.371094 -50.457031 C 51.847656 -50.390625 51.285156 -50.273438 50.71875 -50.15625 C 50.15625 -50.039062 49.589844 -49.921875 49.027344 -49.800781 C 48.375 -49.625 47.855469 -49.511719 47.566406 -49.527344 C 46.035156 -49.433594 44.484375 -49.484375 42.90625 -49.769531 C 41.328125 -50.058594 39.742188 -50.390625 38.144531 -50.820312 C 37.699219 -50.910156 37.152344 -51.035156 36.511719 -51.152344 C 35.871094 -51.265625 35.1875 -51.324219 34.453125 -51.425781 C 33.675781 -51.476562 32.855469 -51.472656 32.085938 -51.472656 C 31.269531 -51.417969 30.511719 -51.324219 29.761719 -51.136719 C 27.933594 -50.71875 26.523438 -50.011719 25.476562 -49.113281 C 24.433594 -48.210938 23.6875 -47.203125 23.289062 -46.140625 C 22.847656 -45.027344 22.792969 -43.910156 23.023438 -42.828125 C 23.257812 -41.699219 23.707031 -40.789062 24.480469 -40.019531 C 25.203125 -39.238281 26.1875 -38.683594 27.429688 -38.40625 C 28.625 -38.070312 30.058594 -38.199219 31.679688 -38.738281 C 30.765625 -39.878906 30.199219 -40.964844 29.972656 -42 C 29.75 -43.03125 29.769531 -44.046875 29.996094 -44.945312 C 30.183594 -45.785156 30.574219 -46.511719 31.128906 -47.109375 C 31.632812 -47.703125 32.210938 -48.109375 32.804688 -48.378906 C 33.589844 -48.667969 34.539062 -48.785156 35.601562 -48.769531 C 36.667969 -48.710938 37.785156 -48.65625 39.050781 -48.570312 C 40.273438 -48.433594 41.542969 -48.300781 42.902344 -48.226562 C 44.222656 -48.097656 45.5625 -48.167969 46.929688 -48.433594 C 45.160156 -47.539062 43.457031 -46.460938 41.820312 -45.292969 C 40.128906 -44.121094 38.550781 -42.863281 36.980469 -41.511719 C 35.417969 -40.113281 33.90625 -38.675781 32.453125 -37.144531 C 31.003906 -35.613281 29.640625 -34.144531 28.382812 -32.636719 C 28.214844 -32.425781 28.042969 -32.257812 27.875 -32.042969 L 27.375 -31.40625 C 26.535156 -31.976562 25.699219 -32.5 24.902344 -33.078125 C 24.066406 -33.601562 23.28125 -34.082031 22.507812 -34.515625 C 21.6875 -34.898438 20.925781 -35.191406 20.179688 -35.386719 C 19.433594 -35.585938 18.695312 -35.6875 17.984375 -35.597656 C 16.367188 -35.398438 15.085938 -34.855469 14.167969 -34.066406 C 13.253906 -33.277344 12.640625 -32.382812 12.320312 -31.472656 C 11.84375 -30.257812 11.921875 -29.207031 12.550781 -28.414062 C 12.847656 -27.96875 13.269531 -27.683594 13.773438 -27.503906 C 14.277344 -27.328125 14.953125 -27.3125 15.75 -27.507812 C 15.359375 -28.328125 15.230469 -28.988281 15.253906 -29.570312 C 15.28125 -30.152344 15.464844 -30.609375 15.757812 -30.980469 C 16.003906 -31.300781 16.367188 -31.492188 16.832031 -31.644531 C 17.292969 -31.800781 17.769531 -31.859375 18.25 -31.867188 C 19.3125 -31.855469 20.453125 -31.609375 21.769531 -31.097656 C 23.039062 -30.578125 24.417969 -29.976562 25.851562 -29.285156 L 24.371094 -27.222656 C 24.039062 -26.796875 23.757812 -26.328125 23.425781 -25.898438 C 23.09375 -25.472656 22.71875 -24.992188 22.34375 -24.511719 C 21.597656 -23.503906 20.761719 -22.484375 19.921875 -21.464844 C 19.082031 -20.445312 18.234375 -19.519531 17.375 -18.640625 C 16.007812 -17.21875 14.730469 -16.242188 13.597656 -15.667969 C 12.46875 -15.046875 11.4375 -14.773438 10.5625 -14.859375 C 9.011719 -14.90625 8.042969 -15.703125 7.558594 -17.285156 C 7.039062 -18.765625 7.234375 -20.71875 8.097656 -23.089844 C 6.863281 -22.9375 5.714844 -22.457031 4.652344 -21.699219 C 3.59375 -20.894531 2.695312 -19.964844 1.921875 -18.808594 C 1.101562 -17.644531 0.441406 -16.355469 -0.0625 -14.945312 C -0.5625 -13.53125 -0.824219 -12.148438 -0.886719 -10.695312 C -0.996094 -9.234375 -0.921875 -7.84375 -0.566406 -6.539062 C -0.257812 -5.226562 0.320312 -4.042969 1.214844 -3.042969 C 2.070312 -1.992188 3.226562 -1.21875 4.636719 -0.71875 C 6.054688 -0.167969 7.859375 -0.0078125 9.964844 -0.167969 Z M 34.636719 -26.898438 L 34.582031 -26.941406 C 33.878906 -27.191406 33.164062 -27.488281 32.488281 -27.886719 C 31.765625 -28.28125 31.089844 -28.679688 30.402344 -29.171875 C 31.078125 -30.316406 31.804688 -31.46875 32.578125 -32.625 C 33.3125 -33.730469 34.144531 -34.796875 35.023438 -35.871094 C 35.867188 -36.84375 36.800781 -37.875 37.878906 -38.921875 C 38.960938 -39.925781 40.136719 -40.9375 41.367188 -41.910156 C 42.605469 -42.835938 43.886719 -43.765625 45.230469 -44.605469 C 46.574219 -45.449219 47.921875 -46.242188 49.332031 -46.945312 C 48.402344 -45.867188 47.351562 -44.628906 46.179688 -43.179688 C 45.007812 -41.734375 43.804688 -40.136719 42.519531 -38.4375 C 41.195312 -36.679688 39.878906 -34.828125 38.570312 -32.933594 C 37.21875 -30.980469 35.921875 -28.988281 34.636719 -26.898438 Z M 34.636719 -26.898438 "/></g></g><g style="fill:rgb(100%,56.858826%,30.198669%);fill-opacity:1;"><g transform="translate(64.135416, 118.042244)"><path style="stroke:none;" d="M 18.175781 -34.03125 C 18.925781 -34.21875 19.660156 -34.503906 20.285156 -34.917969 C 20.910156 -35.332031 21.46875 -35.882812 21.867188 -36.558594 C 22.273438 -37.1875 22.515625 -37.941406 22.648438 -38.828125 C 22.734375 -39.707031 22.664062 -40.660156 22.425781 -41.789062 C 21.621094 -41.304688 20.972656 -41.078125 20.378906 -41.199219 C 19.789062 -41.273438 19.273438 -41.546875 18.882812 -41.980469 C 18.445312 -42.40625 18.183594 -42.953125 18.046875 -43.660156 C 17.917969 -44.320312 17.972656 -45.050781 18.171875 -45.796875 C 18.523438 -47.242188 19.261719 -48.296875 20.332031 -49.007812 C 21.398438 -49.71875 22.695312 -50.167969 24.121094 -50.34375 C 25.164062 -50.472656 26.371094 -50.476562 27.683594 -50.398438 C 28.90625 -50.257812 30.140625 -50.027344 31.328125 -49.785156 C 32.519531 -49.5 33.617188 -49.203125 34.722656 -48.855469 C 35.234375 -48.628906 35.738281 -48.449219 36.1875 -48.3125 C 36.597656 -48.121094 37.054688 -47.9375 37.464844 -47.746094 C 37.875 -47.554688 38.28125 -47.367188 38.746094 -47.132812 C 39.160156 -46.894531 39.671875 -46.667969 40.179688 -46.441406 C 40.703125 -46.121094 41.21875 -45.847656 41.777344 -45.628906 C 42.335938 -45.40625 42.898438 -45.136719 43.503906 -44.925781 C 44.679688 -44.394531 45.835938 -44.007812 47.035156 -43.671875 C 48.234375 -43.335938 49.355469 -43.234375 50.449219 -43.371094 C 51.308594 -43.429688 52.101562 -43.671875 52.777344 -44.042969 C 53.453125 -44.417969 54.023438 -44.871094 54.484375 -45.460938 C 54.898438 -45.992188 55.214844 -46.5625 55.417969 -47.261719 C 55.621094 -47.964844 55.679688 -48.648438 55.640625 -49.363281 C 55.542969 -50.558594 55.015625 -51.699219 54.109375 -52.792969 C 53.203125 -53.886719 51.808594 -54.632812 50.015625 -55.085938 L 50.027344 -54.988281 C 50.070312 -53.839844 49.941406 -52.953125 49.691406 -52.246094 C 49.4375 -51.542969 49.078125 -50.964844 48.589844 -50.617188 C 48.058594 -50.214844 47.511719 -49.953125 46.847656 -49.871094 C 46.1875 -49.742188 45.46875 -49.699219 44.789062 -49.761719 C 43.820312 -49.785156 42.894531 -49.863281 42.007812 -49.996094 C 41.128906 -50.082031 40.242188 -50.261719 39.390625 -50.492188 C 37.660156 -50.859375 35.972656 -51.230469 34.335938 -51.605469 C 32.695312 -51.980469 31.023438 -52.257812 29.265625 -52.425781 C 27.507812 -52.59375 25.785156 -52.480469 24.136719 -52.179688 C 22.4375 -51.871094 20.941406 -51.496094 19.597656 -51.039062 C 18.214844 -50.53125 16.984375 -49.945312 15.867188 -49.226562 C 14.699219 -48.503906 13.738281 -47.710938 12.933594 -46.792969 C 12.089844 -45.820312 11.449219 -44.773438 11.109375 -43.625 C 10.773438 -42.425781 10.683594 -41.207031 10.839844 -39.925781 C 11.003906 -38.59375 11.390625 -37.4375 12.03125 -36.550781 C 12.632812 -35.5625 13.453125 -34.796875 14.476562 -34.296875 C 15.511719 -33.75 16.773438 -33.664062 18.175781 -34.03125 Z M 7.480469 -0.730469 C 9.015625 -0.824219 10.488281 -1.390625 11.859375 -2.382812 C 13.234375 -3.371094 14.566406 -4.691406 15.816406 -6.292969 C 17.0625 -7.894531 18.246094 -9.632812 19.402344 -11.609375 C 20.511719 -13.578125 21.652344 -15.648438 22.738281 -17.808594 C 23.320312 -18.941406 23.976562 -20.277344 24.761719 -21.722656 C 25.5 -23.164062 26.320312 -24.714844 27.179688 -26.363281 L 30.457031 -26.769531 C 29.945312 -26.222656 29.457031 -25.488281 29.039062 -24.566406 C 28.574219 -23.640625 28.296875 -22.789062 28.164062 -21.902344 C 27.988281 -20.964844 28.089844 -20.15625 28.46875 -19.433594 C 28.847656 -18.707031 29.570312 -18.316406 30.746094 -18.171875 C 31.726562 -18.050781 32.707031 -18.316406 33.734375 -18.972656 C 34.671875 -19.570312 35.351562 -20.332031 35.816406 -21.257812 L 35.261719 -21.042969 C 34.21875 -20.914062 33.386719 -21.003906 32.765625 -21.363281 C 32.046875 -21.707031 31.683594 -22.289062 31.585938 -23.097656 C 31.484375 -23.90625 31.800781 -24.859375 32.480469 -26.003906 C 33 -26.890625 33.617188 -27.738281 34.289062 -28.542969 C 34.96875 -29.304688 35.691406 -30.066406 36.464844 -30.839844 C 36.109375 -30.988281 35.757812 -31.089844 35.472656 -31.054688 C 35.1875 -31.019531 34.867188 -30.882812 34.507812 -30.691406 C 34.195312 -30.460938 33.886719 -30.230469 33.625 -30.003906 C 33.324219 -29.726562 33.0625 -29.503906 32.847656 -29.28125 L 28.429688 -28.738281 C 29.453125 -30.601562 30.488281 -32.367188 31.523438 -34.136719 C 32.558594 -35.902344 33.621094 -37.480469 34.691406 -38.964844 C 35.71875 -40.394531 36.683594 -41.574219 37.632812 -42.460938 C 38.539062 -43.347656 39.386719 -43.886719 40.136719 -44.074219 C 39.21875 -44.875 38.230469 -45.042969 37.125 -44.617188 C 36.023438 -44.191406 34.867188 -43.375 33.574219 -42.152344 L 33.519531 -42.195312 C 33.175781 -41.863281 32.628906 -41.21875 31.972656 -40.269531 C 31.316406 -39.320312 30.542969 -38.164062 29.6875 -36.898438 C 28.789062 -35.582031 27.855469 -34.164062 26.878906 -32.695312 C 26.351562 -31.90625 25.8125 -31.164062 25.328125 -30.425781 C 24.839844 -29.691406 24.304688 -28.949219 23.816406 -28.214844 L 17.210938 -27.398438 L 15.050781 -24.960938 L 22.082031 -25.832031 C 21.347656 -24.773438 20.597656 -23.8125 19.882812 -22.953125 C 19.121094 -22.089844 18.449219 -21.28125 17.808594 -20.625 C 16.867188 -19.640625 15.964844 -18.757812 15.101562 -17.925781 C 14.191406 -17.089844 13.316406 -16.355469 12.472656 -15.769531 C 11.589844 -15.128906 10.78125 -14.644531 10 -14.304688 C 9.183594 -13.914062 8.480469 -13.734375 7.804688 -13.746094 C 7.132812 -13.710938 6.484375 -13.871094 5.917969 -14.1875 C 5.300781 -14.496094 4.835938 -15.117188 4.496094 -15.941406 C 4.109375 -16.714844 3.835938 -17.742188 3.773438 -19.035156 C 3.664062 -20.324219 3.75 -21.976562 4.035156 -23.941406 C 2.757812 -23.347656 1.652344 -22.535156 0.761719 -21.558594 C -0.175781 -20.574219 -0.910156 -19.46875 -1.488281 -18.289062 C -2.105469 -17.054688 -2.523438 -15.75 -2.789062 -14.367188 C -3.050781 -12.984375 -3.128906 -11.671875 -3.058594 -10.328125 C -2.984375 -8.941406 -2.726562 -7.621094 -2.289062 -6.421875 C -1.84375 -5.175781 -1.230469 -4.09375 -0.351562 -3.238281 C 0.484375 -2.328125 1.535156 -1.636719 2.847656 -1.171875 C 4.109375 -0.699219 5.671875 -0.554688 7.480469 -0.730469 Z M 7.480469 -0.730469 "/></g></g><g style="fill:rgb(99.609375%,100%,21.958923%);fill-opacity:1;"><g transform="translate(65.199956, 117.267649)"><path style="stroke:none;" d="M 18.175781 -34.03125 C 18.925781 -34.21875 19.660156 -34.503906 20.285156 -34.917969 C 20.910156 -35.332031 21.46875 -35.882812 21.867188 -36.558594 C 22.273438 -37.1875 22.515625 -37.941406 22.648438 -38.828125 C 22.734375 -39.707031 22.664062 -40.660156 22.425781 -41.789062 C 21.621094 -41.304688 20.972656 -41.078125 20.378906 -41.199219 C 19.789062 -41.273438 19.273438 -41.546875 18.882812 -41.980469 C 18.445312 -42.40625 18.183594 -42.953125 18.046875 -43.660156 C 17.917969 -44.320312 17.972656 -45.050781 18.171875 -45.796875 C 18.523438 -47.242188 19.261719 -48.296875 20.332031 -49.007812 C 21.398438 -49.71875 22.695312 -50.167969 24.121094 -50.34375 C 25.164062 -50.472656 26.371094 -50.476562 27.683594 -50.398438 C 28.90625 -50.257812 30.140625 -50.027344 31.328125 -49.785156 C 32.519531 -49.5 33.617188 -49.203125 34.722656 -48.855469 C 35.234375 -48.628906 35.738281 -48.449219 36.1875 -48.3125 C 36.597656 -48.121094 37.054688 -47.9375 37.464844 -47.746094 C 37.875 -47.554688 38.28125 -47.367188 38.746094 -47.132812 C 39.160156 -46.894531 39.671875 -46.667969 40.179688 -46.441406 C 40.703125 -46.121094 41.21875 -45.847656 41.777344 -45.628906 C 42.335938 -45.40625 42.898438 -45.136719 43.503906 -44.925781 C 44.679688 -44.394531 45.835938 -44.007812 47.035156 -43.671875 C 48.234375 -43.335938 49.355469 -43.234375 50.449219 -43.371094 C 51.308594 -43.429688 52.101562 -43.671875 52.777344 -44.042969 C 53.453125 -44.417969 54.023438 -44.871094 54.484375 -45.460938 C 54.898438 -45.992188 55.214844 -46.5625 55.417969 -47.261719 C 55.621094 -47.964844 55.679688 -48.648438 55.640625 -49.363281 C 55.542969 -50.558594 55.015625 -51.699219 54.109375 -52.792969 C 53.203125 -53.886719 51.808594 -54.632812 50.015625 -55.085938 L 50.027344 -54.988281 C 50.070312 -53.839844 49.941406 -52.953125 49.691406 -52.246094 C 49.4375 -51.542969 49.078125 -50.964844 48.589844 -50.617188 C 48.058594 -50.214844 47.511719 -49.953125 46.847656 -49.871094 C 46.1875 -49.742188 45.46875 -49.699219 44.789062 -49.761719 C 43.820312 -49.785156 42.894531 -49.863281 42.007812 -49.996094 C 41.128906 -50.082031 40.242188 -50.261719 39.390625 -50.492188 C 37.660156 -50.859375 35.972656 -51.230469 34.335938 -51.605469 C 32.695312 -51.980469 31.023438 -52.257812 29.265625 -52.425781 C 27.507812 -52.59375 25.785156 -52.480469 24.136719 -52.179688 C 22.4375 -51.871094 20.941406 -51.496094 19.597656 -51.039062 C 18.214844 -50.53125 16.984375 -49.945312 15.867188 -49.226562 C 14.699219 -48.503906 13.738281 -47.710938 12.933594 -46.792969 C 12.089844 -45.820312 11.449219 -44.773438 11.109375 -43.625 C 10.773438 -42.425781 10.683594 -41.207031 10.839844 -39.925781 C 11.003906 -38.59375 11.390625 -37.4375 12.03125 -36.550781 C 12.632812 -35.5625 13.453125 -34.796875 14.476562 -34.296875 C 15.511719 -33.75 16.773438 -33.664062 18.175781 -34.03125 Z M 7.480469 -0.730469 C 9.015625 -0.824219 10.488281 -1.390625 11.859375 -2.382812 C 13.234375 -3.371094 14.566406 -4.691406 15.816406 -6.292969 C 17.0625 -7.894531 18.246094 -9.632812 19.402344 -11.609375 C 20.511719 -13.578125 21.652344 -15.648438 22.738281 -17.808594 C 23.320312 -18.941406 23.976562 -20.277344 24.761719 -21.722656 C 25.5 -23.164062 26.320312 -24.714844 27.179688 -26.363281 L 30.457031 -26.769531 C 29.945312 -26.222656 29.457031 -25.488281 29.039062 -24.566406 C 28.574219 -23.640625 28.296875 -22.789062 28.164062 -21.902344 C 27.988281 -20.964844 28.089844 -20.15625 28.46875 -19.433594 C 28.847656 -18.707031 29.570312 -18.316406 30.746094 -18.171875 C 31.726562 -18.050781 32.707031 -18.316406 33.734375 -18.972656 C 34.671875 -19.570312 35.351562 -20.332031 35.816406 -21.257812 L 35.261719 -21.042969 C 34.21875 -20.914062 33.386719 -21.003906 32.765625 -21.363281 C 32.046875 -21.707031 31.683594 -22.289062 31.585938 -23.097656 C 31.484375 -23.90625 31.800781 -24.859375 32.480469 -26.003906 C 33 -26.890625 33.617188 -27.738281 34.289062 -28.542969 C 34.96875 -29.304688 35.691406 -30.066406 36.464844 -30.839844 C 36.109375 -30.988281 35.757812 -31.089844 35.472656 -31.054688 C 35.1875 -31.019531 34.867188 -30.882812 34.507812 -30.691406 C 34.195312 -30.460938 33.886719 -30.230469 33.625 -30.003906 C 33.324219 -29.726562 33.0625 -29.503906 32.847656 -29.28125 L 28.429688 -28.738281 C 29.453125 -30.601562 30.488281 -32.367188 31.523438 -34.136719 C 32.558594 -35.902344 33.621094 -37.480469 34.691406 -38.964844 C 35.71875 -40.394531 36.683594 -41.574219 37.632812 -42.460938 C 38.539062 -43.347656 39.386719 -43.886719 40.136719 -44.074219 C 39.21875 -44.875 38.230469 -45.042969 37.125 -44.617188 C 36.023438 -44.191406 34.867188 -43.375 33.574219 -42.152344 L 33.519531 -42.195312 C 33.175781 -41.863281 32.628906 -41.21875 31.972656 -40.269531 C 31.316406 -39.320312 30.542969 -38.164062 29.6875 -36.898438 C 28.789062 -35.582031 27.855469 -34.164062 26.878906 -32.695312 C 26.351562 -31.90625 25.8125 -31.164062 25.328125 -30.425781 C 24.839844 -29.691406 24.304688 -28.949219 23.816406 -28.214844 L 17.210938 -27.398438 L 15.050781 -24.960938 L 22.082031 -25.832031 C 21.347656 -24.773438 20.597656 -23.8125 19.882812 -22.953125 C 19.121094 -22.089844 18.449219 -21.28125 17.808594 -20.625 C 16.867188 -19.640625 15.964844 -18.757812 15.101562 -17.925781 C 14.191406 -17.089844 13.316406 -16.355469 12.472656 -15.769531 C 11.589844 -15.128906 10.78125 -14.644531 10 -14.304688 C 9.183594 -13.914062 8.480469 -13.734375 7.804688 -13.746094 C 7.132812 -13.710938 6.484375 -13.871094 5.917969 -14.1875 C 5.300781 -14.496094 4.835938 -15.117188 4.496094 -15.941406 C 4.109375 -16.714844 3.835938 -17.742188 3.773438 -19.035156 C 3.664062 -20.324219 3.75 -21.976562 4.035156 -23.941406 C 2.757812 -23.347656 1.652344 -22.535156 0.761719 -21.558594 C -0.175781 -20.574219 -0.910156 -19.46875 -1.488281 -18.289062 C -2.105469 -17.054688 -2.523438 -15.75 -2.789062 -14.367188 C -3.050781 -12.984375 -3.128906 -11.671875 -3.058594 -10.328125 C -2.984375 -8.941406 -2.726562 -7.621094 -2.289062 -6.421875 C -1.84375 -5.175781 -1.230469 -4.09375 -0.351562 -3.238281 C 0.484375 -2.328125 1.535156 -1.636719 2.847656 -1.171875 C 4.109375 -0.699219 5.671875 -0.554688 7.480469 -0.730469 Z M 7.480469 -0.730469 "/></g></g></g></svg>